<svg width="28" height="28" viewBox="0 0 28 28" fill="none" xmlns="http://www.w3.org/2000/svg">
<path d="M9.27563 13.8587C9.27563 11.3075 11.3512 9.23876 13.9123 9.23876C16.4734 9.23876 18.5501 11.3075 18.5501 13.8587C18.5501 16.4099 16.4734 18.4786 13.9123 18.4786C11.3512 18.4786 9.27563 16.4099 9.27563 13.8587ZM6.76851 13.8587C6.76851 17.789 9.96679 20.975 13.9123 20.975C17.8579 20.975 21.0561 17.789 21.0561 13.8587C21.0561 9.92837 17.8579 6.74242 13.9123 6.74242C9.96679 6.74242 6.76851 9.92837 6.76851 13.8587ZM19.6695 6.46026C19.6693 6.78918 19.7671 7.11075 19.9505 7.38431C20.1338 7.65787 20.3944 7.87113 20.6995 7.99712C21.0045 8.12311 21.3401 8.15618 21.664 8.09214C21.9879 8.0281 22.2854 7.86983 22.519 7.63734C22.7526 7.40485 22.9117 7.10859 22.9762 6.78602C23.0408 6.46345 23.0078 6.12905 22.8816 5.82512C22.7554 5.52119 22.5415 5.26137 22.267 5.07852C21.9925 4.89568 21.6698 4.79801 21.3396 4.79788H21.339C20.8964 4.79809 20.4719 4.97327 20.1589 5.28497C19.8459 5.59666 19.6699 6.01937 19.6695 6.46026ZM8.29175 25.1393C6.93535 25.0778 6.19811 24.8527 5.70817 24.6626C5.05863 24.4107 4.59519 24.1107 4.10792 23.626C3.62066 23.1412 3.31904 22.68 3.06728 22.033C2.87629 21.5452 2.65035 20.8105 2.58869 19.4594C2.52125 17.9986 2.50778 17.5597 2.50778 13.8588C2.50778 10.1579 2.52236 9.72027 2.58869 8.25823C2.65047 6.90706 2.87807 6.17388 3.06728 5.68461C3.32015 5.03758 3.62132 4.57592 4.10792 4.09053C4.59452 3.60515 5.05752 3.30469 5.70817 3.0539C6.19789 2.86365 6.93535 2.63858 8.29175 2.57716C9.75822 2.50998 10.1987 2.49656 13.9123 2.49656C17.6259 2.49656 18.0669 2.51108 19.5346 2.57716C20.891 2.6387 21.627 2.86542 22.1182 3.0539C22.7677 3.30469 23.2311 3.60581 23.7184 4.09053C24.2057 4.57525 24.5062 5.03758 24.759 5.68461C24.95 6.17244 25.176 6.90706 25.2376 8.25823C25.3051 9.72027 25.3185 10.1579 25.3185 13.8588C25.3185 17.5597 25.3051 17.9973 25.2376 19.4594C25.1759 20.8105 24.9488 21.5449 24.759 22.033C24.5062 22.68 24.205 23.1417 23.7184 23.626C23.2318 24.1102 22.7677 24.4107 22.1182 24.6626C21.6284 24.8529 20.891 25.0779 19.5346 25.1393C18.0681 25.2065 17.6276 25.2199 13.9123 25.2199C10.1971 25.2199 9.75777 25.2065 8.29175 25.1393ZM8.17655 0.0839283C6.6955 0.151115 5.68346 0.38505 4.79964 0.727637C3.88432 1.08142 3.10946 1.55605 2.33516 2.32615C1.56085 3.09625 1.08561 3.86935 0.730453 4.78114C0.38654 5.66211 0.1517 6.66969 0.0842531 8.14503C0.0156931 9.6227 0 10.0951 0 13.8587C0 17.6223 0.0156931 18.0947 0.0842531 19.5724C0.1517 21.0478 0.38654 22.0553 0.730453 22.9363C1.08561 23.8475 1.56096 24.6215 2.33516 25.3912C3.10935 26.161 3.88432 26.635 4.79964 26.9898C5.68513 27.3323 6.6955 27.5663 8.17655 27.6335C9.66072 27.7006 10.1342 27.7174 13.9123 27.7174C17.6905 27.7174 18.1647 27.7018 19.6481 27.6335C21.1293 27.5663 22.1406 27.3323 23.025 26.9898C23.9398 26.635 24.7152 26.1613 25.4895 25.3912C26.2638 24.6211 26.738 23.8475 27.0942 22.9363C27.4381 22.0553 27.6741 21.0477 27.7404 19.5724C27.8078 18.0936 27.8235 17.6223 27.8235 13.8587C27.8235 10.0951 27.8078 9.6227 27.7404 8.14503C27.673 6.66958 27.4381 5.66155 27.0942 4.78114C26.738 3.8699 26.2626 3.09747 25.4895 2.32615C24.7164 1.55483 23.9398 1.08142 23.0261 0.727637C22.1406 0.38505 21.1292 0.150007 19.6492 0.0839283C18.1658 0.0167413 17.6916 0 13.9134 0C10.1353 0 9.66072 0.0156326 8.17655 0.0839283Z" fill="url(#paint0_radial_73_215)"/>
<path d="M9.27563 13.8587C9.27563 11.3075 11.3512 9.23876 13.9123 9.23876C16.4734 9.23876 18.5501 11.3075 18.5501 13.8587C18.5501 16.4099 16.4734 18.4786 13.9123 18.4786C11.3512 18.4786 9.27563 16.4099 9.27563 13.8587ZM6.76851 13.8587C6.76851 17.789 9.96679 20.975 13.9123 20.975C17.8579 20.975 21.0561 17.789 21.0561 13.8587C21.0561 9.92837 17.8579 6.74242 13.9123 6.74242C9.96679 6.74242 6.76851 9.92837 6.76851 13.8587ZM19.6695 6.46026C19.6693 6.78918 19.7671 7.11075 19.9505 7.38431C20.1338 7.65787 20.3944 7.87113 20.6995 7.99712C21.0045 8.12311 21.3401 8.15618 21.664 8.09214C21.9879 8.0281 22.2854 7.86983 22.519 7.63734C22.7526 7.40485 22.9117 7.10859 22.9762 6.78602C23.0408 6.46345 23.0078 6.12905 22.8816 5.82512C22.7554 5.52119 22.5415 5.26137 22.267 5.07852C21.9925 4.89568 21.6698 4.79801 21.3396 4.79788H21.339C20.8964 4.79809 20.4719 4.97327 20.1589 5.28497C19.8459 5.59666 19.6699 6.01937 19.6695 6.46026ZM8.29175 25.1393C6.93535 25.0778 6.19811 24.8527 5.70817 24.6626C5.05863 24.4107 4.59519 24.1107 4.10792 23.626C3.62066 23.1412 3.31904 22.68 3.06728 22.033C2.87629 21.5452 2.65035 20.8105 2.58869 19.4594C2.52125 17.9986 2.50778 17.5597 2.50778 13.8588C2.50778 10.1579 2.52236 9.72027 2.58869 8.25823C2.65047 6.90706 2.87807 6.17388 3.06728 5.68461C3.32015 5.03758 3.62132 4.57592 4.10792 4.09053C4.59452 3.60515 5.05752 3.30469 5.70817 3.0539C6.19789 2.86365 6.93535 2.63858 8.29175 2.57716C9.75822 2.50998 10.1987 2.49656 13.9123 2.49656C17.6259 2.49656 18.0669 2.51108 19.5346 2.57716C20.891 2.6387 21.627 2.86542 22.1182 3.0539C22.7677 3.30469 23.2311 3.60581 23.7184 4.09053C24.2057 4.57525 24.5062 5.03758 24.759 5.68461C24.95 6.17244 25.176 6.90706 25.2376 8.25823C25.3051 9.72027 25.3185 10.1579 25.3185 13.8588C25.3185 17.5597 25.3051 17.9973 25.2376 19.4594C25.1759 20.8105 24.9488 21.5449 24.759 22.033C24.5062 22.68 24.205 23.1417 23.7184 23.626C23.2318 24.1102 22.7677 24.4107 22.1182 24.6626C21.6284 24.8529 20.891 25.0779 19.5346 25.1393C18.0681 25.2065 17.6276 25.2199 13.9123 25.2199C10.1971 25.2199 9.75777 25.2065 8.29175 25.1393ZM8.17655 0.0839283C6.6955 0.151115 5.68346 0.38505 4.79964 0.727637C3.88432 1.08142 3.10946 1.55605 2.33516 2.32615C1.56085 3.09625 1.08561 3.86935 0.730453 4.78114C0.38654 5.66211 0.1517 6.66969 0.0842531 8.14503C0.0156931 9.6227 0 10.0951 0 13.8587C0 17.6223 0.0156931 18.0947 0.0842531 19.5724C0.1517 21.0478 0.38654 22.0553 0.730453 22.9363C1.08561 23.8475 1.56096 24.6215 2.33516 25.3912C3.10935 26.161 3.88432 26.635 4.79964 26.9898C5.68513 27.3323 6.6955 27.5663 8.17655 27.6335C9.66072 27.7006 10.1342 27.7174 13.9123 27.7174C17.6905 27.7174 18.1647 27.7018 19.6481 27.6335C21.1293 27.5663 22.1406 27.3323 23.025 26.9898C23.9398 26.635 24.7152 26.1613 25.4895 25.3912C26.2638 24.6211 26.738 23.8475 27.0942 22.9363C27.4381 22.0553 27.6741 21.0477 27.7404 19.5724C27.8078 18.0936 27.8235 17.6223 27.8235 13.8587C27.8235 10.0951 27.8078 9.6227 27.7404 8.14503C27.673 6.66958 27.4381 5.66155 27.0942 4.78114C26.738 3.8699 26.2626 3.09747 25.4895 2.32615C24.7164 1.55483 23.9398 1.08142 23.0261 0.727637C22.1406 0.38505 21.1292 0.150007 19.6492 0.0839283C18.1658 0.0167413 17.6916 0 13.9134 0C10.1353 0 9.66072 0.0156326 8.17655 0.0839283Z" fill="#1E7E8B"/>
<defs>
<radialGradient id="paint0_radial_73_215" cx="0" cy="0" r="1" gradientUnits="userSpaceOnUse" gradientTransform="translate(3.69667 27.8483) scale(36.3228 36.1827)">
<stop offset="0.09" stop-color="#FA8F21"/>
<stop offset="0.78" stop-color="#D82D7E"/>
</radialGradient>
</defs>
</svg>
